<?xml version="1.0" standalone="no"?>
<!DOCTYPE svg PUBLIC "-//W3C//DTD SVG 20010904//EN"
 "http://www.w3.org/TR/2001/REC-SVG-20010904/DTD/svg10.dtd">
<svg version="1.0" xmlns="http://www.w3.org/2000/svg"
 width="685.000000pt" height="520.000000pt" viewBox="0 0 685.000000 520.000000"
 preserveAspectRatio="xMidYMid meet">

<g transform="translate(0.000000,520.000000) scale(0.100000,-0.100000)"
fill="#000000" stroke="none">
<path d="M626 4028 c-5 -25 -86 -902 -86 -930 0 -14 9 -18 43 -18 l43 0 33
109 c84 275 229 460 451 571 153 77 215 90 470 100 280 11 630 13 630 3 0 -5
-436 -708 -969 -1563 l-969 -1555 1511 -3 c831 -1 1513 0 1516 3 2 3 33 258
67 568 35 309 65 577 68 595 l5 32 -49 0 -48 0 -23 -92 c-101 -411 -352 -711
-704 -843 -171 -64 -327 -77 -882 -73 l-432 3 930 1495 c512 822 948 1523 970
1558 l39 62 -1305 0 -1305 0 -4 -22z"/>
<path d="M3600 4005 l0 -45 42 0 c163 0 304 -44 365 -113 68 -78 64 22 61
-1467 l-3 -1345 -29 -56 c-53 -105 -125 -139 -308 -146 l-128 -5 0 -44 0 -44
1443 0 1442 0 73 513 c40 281 72 518 72 525 0 7 -15 12 -42 12 l-43 0 -33 -98
c-67 -195 -177 -377 -304 -499 -116 -112 -299 -204 -488 -245 -138 -30 -602
-39 -682 -13 -60 20 -109 61 -134 113 -23 49 -33 297 -34 841 l0 434 108 -6
c232 -14 354 -82 455 -256 67 -113 127 -302 142 -446 l7 -65 44 0 44 0 0 870
0 870 -43 0 -43 0 -13 -92 c-30 -233 -105 -428 -205 -536 -89 -97 -235 -152
-403 -152 l-93 0 0 676 0 677 313 -7 c338 -8 486 -22 587 -56 197 -67 340
-190 422 -362 30 -65 80 -214 99 -300 l12 -58 44 0 43 0 0 485 0 485 -1395 0
-1395 0 0 -45z"/>
</g>
</svg>
